# Blender v2.74 (sub 0) OBJ File: ''
# www.blender.org
mtllib egg.mtl
o ShapeIndexedFaceSet.086_ShapeIndexedFaceSet.087
v -0.654745 -9.727178 0.000000
v -0.902200 -0.364917 -0.000002
v 0.898033 1.442034 -0.000002
v -0.902200 1.442034 -0.000002
v -0.902200 -0.364917 -0.000002
v 0.898033 -0.364917 -0.000002
v 0.898033 1.442034 -0.000002
vt 1.000000 0.000000
vt 0.000000 1.000000
vt 1.000000 1.000000
vt 0.000000 0.000000
vn 0.000000 0.000000 1.000000
usemtl Shape.086
s off
f 2/1/1 3/2/1 4/3/1
f 5/1/1 6/4/1 7/2/1
