# Blender v2.79 (sub 0) OBJ File: 'IntroPaper_Rip_06.blend'
# www.blender.org
mtllib peach_letter.mtl
o Shape_IndexedFaceSet.083
v 0.072000 -0.081500 -0.000000
v -0.000000 0.081500 0.000000
v -0.000000 -0.081500 -0.000000
v 0.072000 0.081500 0.000000
vt 0.966797 0.000000
vt 0.000000 0.982422
vt 0.966797 0.982422
vt 0.000000 0.000000
vn 0.0000 -0.0000 1.0000
usemtl Shape.083
s off
f 4/1/1 3/2/1 1/3/1
f 4/1/1 2/4/1 3/2/1
o Shape_IndexedFaceSet.082
v 0.000000 -0.081500 -0.000000
v -0.071000 0.081500 0.000000
v -0.071000 -0.081500 -0.000000
v 0.000000 0.081500 0.000000
vt 0.966797 0.000000
vt 0.000000 0.982422
vt 0.966797 0.982422
vt 0.000000 0.000000
vn 0.0000 -0.0000 1.0000
usemtl Shape.082
s off
f 8/5/2 7/6/2 5/7/2
f 8/5/2 6/8/2 7/6/2
